<?xml version="1.0" standalone="no"?>
<!DOCTYPE svg PUBLIC "-//W3C//DTD SVG 20010904//EN"
 "http://www.w3.org/TR/2001/REC-SVG-20010904/DTD/svg10.dtd">
<svg version="1.0" xmlns="http://www.w3.org/2000/svg"
 width="1467.000000pt" height="615.000000pt" viewBox="0 0 1467.000000 615.000000"
 preserveAspectRatio="xMidYMid meet">
<metadata>
Created by potrace 1.16, written by Peter Selinger 2001-2019
</metadata>
<g transform="translate(0.000000,615.000000) scale(0.100000,-0.100000)"
fill="#000000" stroke="none">
<path d="M330 3966 l0 -756 35 0 35 0 0 280 0 280 98 0 97 0 22 33 c26 37 29
57 11 75 -9 9 -8 12 5 12 26 0 21 13 -24 64 l-41 46 31 0 c40 0 39 12 -2 47
-18 15 -43 43 -56 61 l-22 32 25 0 c29 0 35 20 11 40 -8 6 -17 22 -21 33 -3
12 -20 37 -37 55 l-31 32 32 0 c37 0 40 10 11 36 -12 10 -35 38 -51 62 -27 39
-28 42 -8 42 30 0 25 15 -25 80 l-45 59 26 3 26 3 -41 47 c-23 25 -41 53 -41
61 0 9 -4 19 -10 22 -7 4 -10 -248 -10 -749z"/>
<path d="M13300 4281 l0 -359 23 -15 c12 -8 19 -18 15 -22 -4 -4 -14 -2 -23 5
-13 11 -15 8 -15 -18 0 -17 6 -33 13 -36 10 -5 10 -7 0 -12 -10 -4 -13 -57
-13 -214 0 -201 1 -210 20 -220 12 -6 25 -22 30 -35 6 -16 15 -23 25 -19 13 5
15 37 15 220 l0 214 180 0 c113 0 180 4 180 10 0 6 -4 10 -10 10 -5 0 -10 6
-10 13 0 16 -36 50 -65 62 -18 8 -17 9 8 13 37 5 34 17 -13 47 -21 13 -44 33
-50 44 -9 18 -6 20 22 23 l33 3 -70 55 -69 55 37 3 c20 2 37 9 37 15 0 7 -29
40 -63 74 l-64 62 36 3 36 3 -65 63 c-61 58 -63 62 -37 62 15 0 27 4 27 9 0 4
-24 33 -54 64 -53 56 -53 56 -26 59 27 3 26 4 -31 60 l-59 58 0 -359z"/>
<path d="M13910 3827 l0 -436 25 11 c25 11 25 12 25 155 l0 143 113 0 112 1
-38 35 c-21 19 -36 41 -34 47 3 7 -5 22 -16 35 -18 19 -18 22 -4 22 9 0 17 3
17 7 0 13 -53 63 -67 63 -7 0 -13 5 -13 10 0 6 11 8 25 4 33 -8 32 1 -11 52
-33 41 -34 44 -14 44 21 0 20 2 -10 36 -23 27 -28 39 -19 44 9 6 4 19 -20 48
-25 32 -28 41 -16 44 12 2 8 11 -19 37 l-36 35 0 -437z"/>
<path d="M11850 3651 c0 -11 6 -22 13 -25 9 -5 9 -7 0 -12 -9 -4 -12 -118 -13
-460 0 -250 1 -454 3 -454 2 0 18 5 36 11 l31 11 0 149 0 149 143 0 142 1 -44
39 c-40 37 -42 40 -20 40 22 0 21 3 -19 40 -42 40 -43 40 -16 40 26 0 25 2
-27 50 -52 48 -53 49 -26 50 15 0 27 2 27 5 0 8 -20 32 -52 62 -34 32 -35 43
-6 43 19 0 16 7 -27 50 -43 43 -46 50 -27 50 30 0 28 6 -19 52 -29 28 -42 50
-43 70 -2 43 -56 80 -56 39z"/>
<path d="M3815 3394 c-63 -42 -153 -134 -190 -194 -31 -51 -80 -178 -72 -186
2 -2 21 1 42 7 30 8 48 8 73 -1 28 -10 37 -9 67 10 18 11 53 27 77 34 24 8 36
14 27 15 -13 1 -14 10 -8 56 8 57 33 142 55 186 11 23 10 28 -8 43 -12 11 -18
25 -15 37 7 25 -1 24 -48 -7z"/>
<path d="M14375 3210 c-2362 -1000 -2286 -969 -2873 -1151 -483 -149 -573
-185 -1092 -434 -824 -396 -1568 -695 -2405 -968 -439 -143 -684 -212 -705
-200 -9 6 -57 25 -106 41 -177 60 -1509 557 -3209 1197 -3219 1212 -3687 1386
-3701 1374 -16 -13 -19 -39 -4 -39 6 0 10 -7 10 -15 0 -15 61 -32 79 -21 5 4
19 -3 30 -15 11 -12 25 -18 31 -14 14 9 101 -22 117 -42 16 -21 2279 -898
3103 -1203 444 -165 911 -332 930 -334 9 -1 20 -5 26 -8 14 -9 2220 -820 2374
-873 69 -24 165 -54 213 -66 83 -23 88 -25 104 -61 12 -26 25 -39 44 -43 29
-7 68 8 82 31 4 7 31 20 60 29 28 10 66 23 82 31 17 7 149 49 295 93 633 191
1132 379 1835 692 160 71 298 129 308 129 9 0 157 70 329 156 714 357 942 441
1306 479 38 4 62 12 62 19 0 17 64 46 100 46 16 0 33 6 37 14 8 14 2431 985
2462 987 9 0 61 19 116 42 79 33 100 46 100 62 0 14 -7 20 -25 22 -53 3 -55 4
-27 19 29 16 35 35 14 52 -9 7 -37 0 -102 -28z"/>
<path d="M2640 3051 c0 -134 3 -181 13 -185 7 -4 8 -8 2 -11 -17 -8 -7 -336
11 -356 8 -8 14 -28 14 -43 0 -16 4 -25 10 -21 6 4 10 57 10 125 l0 119 102 3
102 3 -29 29 c-20 20 -25 31 -16 34 8 3 2 15 -20 38 -33 34 -33 34 -8 34 23 0
22 3 -18 40 -34 32 -38 40 -23 40 27 0 25 6 -16 56 -34 42 -34 44 -13 44 21 0
20 3 -15 39 -31 31 -35 40 -21 43 14 2 12 9 -15 43 -27 34 -29 41 -15 43 14 3
13 8 -11 33 -15 16 -31 29 -36 29 -4 0 -8 -81 -8 -179z"/>
<path d="M10860 2400 c0 -225 3 -410 6 -410 3 0 14 5 25 10 17 10 19 22 19
135 l0 125 29 0 c16 0 32 6 35 13 5 10 7 10 12 0 4 -9 29 -13 72 -13 l66 0
-35 36 c-23 25 -30 38 -21 41 10 4 6 13 -14 34 -22 23 -24 29 -11 29 25 0 21
8 -20 46 -33 30 -35 34 -15 34 29 0 28 6 -14 56 -33 41 -34 44 -14 44 20 0 19
4 -14 42 -37 43 -44 58 -26 58 6 0 10 -5 10 -12 0 -6 3 -9 6 -5 4 3 -8 24 -26
47 -26 33 -29 40 -14 40 15 0 13 5 -11 30 -16 17 -32 30 -37 30 -4 0 -8 -184
-8 -410z"/>
<path d="M3913 2725 c-45 -36 -109 -63 -171 -71 -29 -3 -55 -11 -58 -15 -9
-15 -21 -10 -27 11 -3 11 -13 20 -24 20 -28 -1 -66 -34 -62 -56 5 -26 65 -54
115 -54 l41 0 6 -82 c3 -46 8 -91 12 -100 13 -31 38 -31 67 2 33 36 36 79 12
140 -9 23 -15 42 -13 44 2 1 25 10 52 20 26 10 63 33 83 51 30 29 35 39 32 72
-4 47 -22 52 -65 18z"/>
<path d="M10010 2060 c0 -259 3 -470 6 -470 3 0 18 7 34 15 l30 16 0 129 0
130 135 0 c74 0 135 2 135 5 0 2 -19 22 -42 44 -41 38 -42 41 -18 41 23 0 23
2 -15 32 -38 32 -38 33 -15 38 20 5 22 8 9 18 -83 73 -102 93 -95 99 4 4 11 2
15 -6 5 -7 18 -11 29 -9 19 3 17 8 -23 53 -40 44 -43 50 -25 53 28 5 25 12
-20 52 -43 37 -49 50 -25 50 23 0 18 12 -21 50 -28 27 -33 36 -20 38 9 2 16 7
16 12 0 8 -76 80 -85 80 -2 0 -5 -211 -5 -470z"/>
<path d="M5230 2062 c0 -255 2 -291 15 -286 8 4 15 1 15 -5 0 -6 5 -11 10 -11
6 0 10 38 10 95 l0 95 82 0 81 0 -23 25 c-13 14 -20 25 -15 25 4 0 0 9 -10 20
-14 15 -15 20 -4 20 8 0 0 13 -18 30 -37 34 -40 40 -16 40 13 0 10 7 -12 30
-25 26 -26 30 -10 30 16 0 13 6 -15 35 -19 19 -28 35 -21 35 7 0 9 5 6 10 -11
17 -23 11 -29 -15 -4 -14 -11 -25 -16 -25 -13 0 -12 17 4 62 12 35 12 38 -10
59 l-24 22 0 -291z"/>
<path d="M8650 2087 c0 -64 2 -75 15 -71 8 4 15 2 15 -4 0 -5 -7 -15 -15 -22
-13 -11 -15 -58 -15 -311 l0 -299 25 12 c23 10 24 16 27 107 l3 96 71 3 c56 2
76 7 89 22 11 12 13 20 7 20 -7 0 -12 7 -12 15 0 8 5 15 10 15 6 0 -1 12 -15
28 -20 21 -22 28 -10 30 21 5 20 6 -27 51 -38 36 -41 41 -20 41 30 0 28 8 -15
55 -34 38 -34 40 -14 43 21 3 21 5 -10 40 -18 21 -27 38 -21 40 21 7 -7 42
-33 42 -14 0 -25 5 -25 10 0 6 7 10 16 10 13 0 14 3 5 14 -10 11 -9 15 4 18
13 2 8 11 -19 37 l-36 35 0 -77z"/>
<path d="M9060 1796 l0 -348 25 30 c15 18 25 42 25 61 0 28 3 31 29 31 16 0
32 6 35 13 5 9 7 9 12 0 4 -9 11 -10 25 -3 10 6 29 8 42 5 32 -8 54 17 32 35
-12 10 -13 15 -4 21 8 5 4 15 -15 35 -21 23 -23 30 -11 32 21 5 20 6 -27 51
-38 36 -41 41 -20 41 29 0 28 9 -8 47 -34 36 -36 43 -15 43 22 0 19 8 -16 48
-20 22 -27 37 -20 42 8 4 1 20 -18 48 -24 32 -27 41 -15 44 11 2 6 12 -20 37
l-36 35 0 -348z"/>
<path d="M6530 1789 c0 -8 6 -21 13 -28 10 -11 10 -14 0 -18 -10 -4 -13 -82
-13 -348 0 -196 4 -346 9 -349 5 -4 16 -3 25 0 13 5 16 23 16 100 l0 93 106 3
c105 3 106 3 87 23 -10 12 -27 19 -40 17 -13 -2 -23 1 -23 7 0 6 -13 11 -30
11 -16 0 -30 5 -30 10 0 14 67 13 72 -2 3 -8 9 -8 24 0 18 11 18 11 -4 12 -15
0 -22 5 -19 13 2 6 0 20 -5 30 -7 13 -5 17 8 17 13 0 14 3 4 15 -7 8 -19 15
-26 15 -8 0 -14 5 -14 12 0 6 -7 20 -17 30 -15 17 -15 18 7 18 21 0 21 2 -14
45 -34 42 -36 45 -16 45 21 0 20 2 -10 36 -21 24 -28 39 -21 44 8 4 1 20 -18
48 -24 32 -27 41 -15 44 11 2 6 12 -20 37 -23 23 -36 30 -36 20z"/>
<path d="M7637 1594 c-4 -4 -7 -141 -7 -305 l0 -297 25 11 c23 11 25 17 25 85
l0 72 82 0 81 0 -22 24 c-13 14 -20 29 -17 34 3 6 -2 8 -14 5 -11 -3 -20 0
-20 6 0 6 5 11 11 11 5 0 7 5 3 11 -3 6 -1 15 5 19 9 5 3 15 -18 33 -35 29
-38 37 -16 37 14 0 13 3 -1 25 -9 14 -25 25 -35 25 -25 0 -24 17 2 25 20 7 20
7 -5 40 -14 18 -21 35 -15 37 5 2 1 13 -10 25 -11 12 -16 23 -12 25 5 2 -1 15
-13 31 -12 15 -25 24 -29 21z"/>
<path d="M8270 1367 c0 -154 3 -207 13 -211 10 -5 10 -7 0 -12 -9 -4 -13 -39
-13 -126 0 -105 2 -119 16 -114 9 3 20 6 25 6 5 0 9 23 9 50 l0 50 107 0 107
0 -33 34 c-23 24 -29 35 -19 39 9 3 5 13 -14 33 -16 16 -28 23 -28 16 0 -6 -4
-12 -10 -12 -21 0 -9 20 15 26 14 3 25 8 25 10 0 3 -16 18 -35 35 -40 36 -44
49 -14 49 19 0 18 4 -15 45 -34 42 -36 45 -16 45 21 0 20 2 -10 37 -18 20 -28
39 -22 41 16 5 3 32 -15 32 -9 0 -13 6 -10 14 3 8 -1 20 -10 27 -13 12 -13 14
1 19 12 4 8 12 -19 39 l-35 34 0 -206z"/>
</g>
</svg>
